<mxfile host="app.diagrams.net" modified="2023-08-08T16:37:03.494Z" agent="Mozilla/5.0 (Macintosh; Intel Mac OS X 10.15; rv:109.0) Gecko/20100101 Firefox/115.0" etag="udhBvJlWKUjVGhPoQf31" version="21.6.6" type="device">
  <diagram name="Page-1" id="qCx6WuiLG4kMVOrEJuQa">
    <mxGraphModel dx="1050" dy="1128" grid="1" gridSize="10" guides="1" tooltips="1" connect="1" arrows="1" fold="1" page="1" pageScale="1" pageWidth="850" pageHeight="1100" math="0" shadow="0">
      <root>
        <mxCell id="0" />
        <mxCell id="1" parent="0" />
        <mxCell id="6rWLr_ER780oPFV5Ub0y-3" value="" style="edgeStyle=orthogonalEdgeStyle;rounded=0;orthogonalLoop=1;jettySize=auto;html=1;" edge="1" parent="1" source="6rWLr_ER780oPFV5Ub0y-1" target="6rWLr_ER780oPFV5Ub0y-2">
          <mxGeometry relative="1" as="geometry" />
        </mxCell>
        <mxCell id="6rWLr_ER780oPFV5Ub0y-5" value="" style="edgeStyle=orthogonalEdgeStyle;rounded=0;orthogonalLoop=1;jettySize=auto;html=1;" edge="1" parent="1" source="6rWLr_ER780oPFV5Ub0y-1" target="6rWLr_ER780oPFV5Ub0y-4">
          <mxGeometry relative="1" as="geometry" />
        </mxCell>
        <mxCell id="6rWLr_ER780oPFV5Ub0y-1" value="&lt;div&gt;!params&lt;/div&gt;&lt;div&gt;.empty()&lt;/div&gt;" style="rhombus;whiteSpace=wrap;html=1;" vertex="1" parent="1">
          <mxGeometry x="120" width="80" height="80" as="geometry" />
        </mxCell>
        <mxCell id="6rWLr_ER780oPFV5Ub0y-2" value="&lt;h3 id=&quot;errneedmoreparams-461&quot;&gt;&lt;code&gt;ERR_NEEDMOREPARAMS (461)&lt;/code&gt;&lt;/h3&gt;" style="rounded=1;whiteSpace=wrap;html=1;" vertex="1" parent="1">
          <mxGeometry x="260" y="10" width="120" height="60" as="geometry" />
        </mxCell>
        <mxCell id="6rWLr_ER780oPFV5Ub0y-7" value="" style="edgeStyle=orthogonalEdgeStyle;rounded=0;orthogonalLoop=1;jettySize=auto;html=1;" edge="1" parent="1" source="6rWLr_ER780oPFV5Ub0y-4" target="6rWLr_ER780oPFV5Ub0y-6">
          <mxGeometry relative="1" as="geometry" />
        </mxCell>
        <mxCell id="6rWLr_ER780oPFV5Ub0y-9" value="" style="edgeStyle=orthogonalEdgeStyle;rounded=0;orthogonalLoop=1;jettySize=auto;html=1;" edge="1" parent="1" source="6rWLr_ER780oPFV5Ub0y-4" target="6rWLr_ER780oPFV5Ub0y-8">
          <mxGeometry relative="1" as="geometry" />
        </mxCell>
        <mxCell id="6rWLr_ER780oPFV5Ub0y-4" value="client on channel" style="rhombus;whiteSpace=wrap;html=1;" vertex="1" parent="1">
          <mxGeometry x="120" y="160" width="80" height="80" as="geometry" />
        </mxCell>
        <mxCell id="6rWLr_ER780oPFV5Ub0y-6" value="&lt;h3 id=&quot;errnotonchannel-442&quot;&gt;&lt;code&gt;ERR_NOTONCHANNEL (442)&lt;/code&gt;&lt;/h3&gt;" style="rounded=1;whiteSpace=wrap;html=1;" vertex="1" parent="1">
          <mxGeometry x="260" y="170" width="120" height="60" as="geometry" />
        </mxCell>
        <mxCell id="6rWLr_ER780oPFV5Ub0y-11" value="" style="edgeStyle=orthogonalEdgeStyle;rounded=0;orthogonalLoop=1;jettySize=auto;html=1;" edge="1" parent="1" source="6rWLr_ER780oPFV5Ub0y-8" target="6rWLr_ER780oPFV5Ub0y-10">
          <mxGeometry relative="1" as="geometry" />
        </mxCell>
        <mxCell id="6rWLr_ER780oPFV5Ub0y-17" value="" style="edgeStyle=orthogonalEdgeStyle;rounded=0;orthogonalLoop=1;jettySize=auto;html=1;" edge="1" parent="1" source="6rWLr_ER780oPFV5Ub0y-8" target="6rWLr_ER780oPFV5Ub0y-16">
          <mxGeometry relative="1" as="geometry" />
        </mxCell>
        <mxCell id="6rWLr_ER780oPFV5Ub0y-8" value="&lt;div&gt;params&lt;/div&gt;&lt;div&gt;.size() &amp;gt;= 2&lt;br&gt;&lt;/div&gt;" style="rhombus;whiteSpace=wrap;html=1;" vertex="1" parent="1">
          <mxGeometry x="120" y="320" width="80" height="80" as="geometry" />
        </mxCell>
        <mxCell id="6rWLr_ER780oPFV5Ub0y-15" value="" style="edgeStyle=orthogonalEdgeStyle;rounded=0;orthogonalLoop=1;jettySize=auto;html=1;" edge="1" parent="1" source="6rWLr_ER780oPFV5Ub0y-10" target="6rWLr_ER780oPFV5Ub0y-14">
          <mxGeometry relative="1" as="geometry" />
        </mxCell>
        <mxCell id="6rWLr_ER780oPFV5Ub0y-10" value="&lt;h3 id=&quot;rpltopic-332&quot;&gt;&lt;code&gt;RPL_TOPIC (332)&lt;/code&gt;&lt;/h3&gt;" style="rounded=1;whiteSpace=wrap;html=1;" vertex="1" parent="1">
          <mxGeometry x="260" y="330" width="120" height="60" as="geometry" />
        </mxCell>
        <mxCell id="6rWLr_ER780oPFV5Ub0y-14" value="&lt;h3 id=&quot;rpltopicwhotime-333&quot;&gt;&lt;code&gt;RPL_TOPICWHOTIME (333)&lt;/code&gt;&lt;/h3&gt;" style="whiteSpace=wrap;html=1;rounded=1;" vertex="1" parent="1">
          <mxGeometry x="460" y="330" width="120" height="60" as="geometry" />
        </mxCell>
        <mxCell id="6rWLr_ER780oPFV5Ub0y-19" value="" style="edgeStyle=orthogonalEdgeStyle;rounded=0;orthogonalLoop=1;jettySize=auto;html=1;" edge="1" parent="1" source="6rWLr_ER780oPFV5Ub0y-16" target="6rWLr_ER780oPFV5Ub0y-18">
          <mxGeometry relative="1" as="geometry" />
        </mxCell>
        <mxCell id="6rWLr_ER780oPFV5Ub0y-23" value="" style="edgeStyle=orthogonalEdgeStyle;rounded=0;orthogonalLoop=1;jettySize=auto;html=1;" edge="1" parent="1" source="6rWLr_ER780oPFV5Ub0y-16" target="6rWLr_ER780oPFV5Ub0y-22">
          <mxGeometry relative="1" as="geometry" />
        </mxCell>
        <mxCell id="6rWLr_ER780oPFV5Ub0y-16" value="!protected topic" style="rhombus;whiteSpace=wrap;html=1;" vertex="1" parent="1">
          <mxGeometry x="120" y="480" width="80" height="80" as="geometry" />
        </mxCell>
        <mxCell id="6rWLr_ER780oPFV5Ub0y-21" value="" style="edgeStyle=orthogonalEdgeStyle;rounded=0;orthogonalLoop=1;jettySize=auto;html=1;" edge="1" parent="1" source="6rWLr_ER780oPFV5Ub0y-18" target="6rWLr_ER780oPFV5Ub0y-20">
          <mxGeometry relative="1" as="geometry" />
        </mxCell>
        <mxCell id="6rWLr_ER780oPFV5Ub0y-18" value="isOperator" style="rhombus;whiteSpace=wrap;html=1;" vertex="1" parent="1">
          <mxGeometry x="280" y="480" width="80" height="80" as="geometry" />
        </mxCell>
        <mxCell id="6rWLr_ER780oPFV5Ub0y-20" value="&lt;h3 id=&quot;errchanoprivsneeded-482&quot;&gt;&lt;code&gt;ERR_CHANOPRIVSNEEDED (482)&lt;/code&gt;&lt;/h3&gt;" style="rounded=1;whiteSpace=wrap;html=1;" vertex="1" parent="1">
          <mxGeometry x="460" y="490" width="120" height="60" as="geometry" />
        </mxCell>
        <mxCell id="6rWLr_ER780oPFV5Ub0y-25" value="" style="edgeStyle=orthogonalEdgeStyle;rounded=0;orthogonalLoop=1;jettySize=auto;html=1;" edge="1" parent="1" source="6rWLr_ER780oPFV5Ub0y-22" target="6rWLr_ER780oPFV5Ub0y-24">
          <mxGeometry relative="1" as="geometry" />
        </mxCell>
        <mxCell id="6rWLr_ER780oPFV5Ub0y-30" value="" style="edgeStyle=orthogonalEdgeStyle;rounded=0;orthogonalLoop=1;jettySize=auto;html=1;" edge="1" parent="1" source="6rWLr_ER780oPFV5Ub0y-22" target="6rWLr_ER780oPFV5Ub0y-29">
          <mxGeometry relative="1" as="geometry" />
        </mxCell>
        <mxCell id="6rWLr_ER780oPFV5Ub0y-22" value="!topic &quot;&quot;" style="rhombus;whiteSpace=wrap;html=1;" vertex="1" parent="1">
          <mxGeometry x="120" y="640" width="80" height="80" as="geometry" />
        </mxCell>
        <mxCell id="6rWLr_ER780oPFV5Ub0y-27" value="" style="edgeStyle=orthogonalEdgeStyle;rounded=0;orthogonalLoop=1;jettySize=auto;html=1;" edge="1" parent="1" source="6rWLr_ER780oPFV5Ub0y-24" target="6rWLr_ER780oPFV5Ub0y-26">
          <mxGeometry relative="1" as="geometry" />
        </mxCell>
        <mxCell id="6rWLr_ER780oPFV5Ub0y-24" value="set topic" style="rounded=1;whiteSpace=wrap;html=1;" vertex="1" parent="1">
          <mxGeometry x="100" y="810" width="120" height="60" as="geometry" />
        </mxCell>
        <mxCell id="6rWLr_ER780oPFV5Ub0y-33" value="" style="edgeStyle=orthogonalEdgeStyle;rounded=0;orthogonalLoop=1;jettySize=auto;html=1;" edge="1" parent="1" source="6rWLr_ER780oPFV5Ub0y-26" target="6rWLr_ER780oPFV5Ub0y-32">
          <mxGeometry relative="1" as="geometry" />
        </mxCell>
        <mxCell id="6rWLr_ER780oPFV5Ub0y-26" value="TOPIC command to all members with topic or empty argument" style="whiteSpace=wrap;html=1;rounded=1;" vertex="1" parent="1">
          <mxGeometry x="100" y="950" width="120" height="60" as="geometry" />
        </mxCell>
        <mxCell id="6rWLr_ER780oPFV5Ub0y-28" value="" style="edgeStyle=segmentEdgeStyle;endArrow=classic;html=1;curved=0;rounded=0;endSize=8;startSize=8;exitX=0.5;exitY=1;exitDx=0;exitDy=0;entryX=0.5;entryY=0;entryDx=0;entryDy=0;" edge="1" parent="1" source="6rWLr_ER780oPFV5Ub0y-18" target="6rWLr_ER780oPFV5Ub0y-22">
          <mxGeometry width="50" height="50" relative="1" as="geometry">
            <mxPoint x="370" y="570" as="sourcePoint" />
            <mxPoint x="420" y="520" as="targetPoint" />
            <Array as="points">
              <mxPoint x="320" y="600" />
              <mxPoint x="160" y="600" />
            </Array>
          </mxGeometry>
        </mxCell>
        <mxCell id="6rWLr_ER780oPFV5Ub0y-29" value="clear topic" style="rounded=1;whiteSpace=wrap;html=1;" vertex="1" parent="1">
          <mxGeometry x="260" y="810" width="120" height="60" as="geometry" />
        </mxCell>
        <mxCell id="6rWLr_ER780oPFV5Ub0y-31" value="" style="edgeStyle=segmentEdgeStyle;endArrow=classic;html=1;curved=0;rounded=0;endSize=8;startSize=8;exitX=0.5;exitY=1;exitDx=0;exitDy=0;entryX=0.5;entryY=0;entryDx=0;entryDy=0;" edge="1" parent="1" source="6rWLr_ER780oPFV5Ub0y-29" target="6rWLr_ER780oPFV5Ub0y-26">
          <mxGeometry width="50" height="50" relative="1" as="geometry">
            <mxPoint x="370" y="570" as="sourcePoint" />
            <mxPoint x="420" y="520" as="targetPoint" />
            <Array as="points">
              <mxPoint x="320" y="900" />
              <mxPoint x="160" y="900" />
            </Array>
          </mxGeometry>
        </mxCell>
        <mxCell id="6rWLr_ER780oPFV5Ub0y-32" value="END" style="ellipse;whiteSpace=wrap;html=1;rounded=1;" vertex="1" parent="1">
          <mxGeometry x="680" y="940" width="80" height="80" as="geometry" />
        </mxCell>
        <mxCell id="6rWLr_ER780oPFV5Ub0y-34" value="" style="edgeStyle=segmentEdgeStyle;endArrow=classic;html=1;curved=0;rounded=0;endSize=8;startSize=8;exitX=1;exitY=0.5;exitDx=0;exitDy=0;entryX=0.5;entryY=0;entryDx=0;entryDy=0;" edge="1" parent="1" source="6rWLr_ER780oPFV5Ub0y-14" target="6rWLr_ER780oPFV5Ub0y-32">
          <mxGeometry width="50" height="50" relative="1" as="geometry">
            <mxPoint x="370" y="570" as="sourcePoint" />
            <mxPoint x="420" y="520" as="targetPoint" />
          </mxGeometry>
        </mxCell>
        <mxCell id="6rWLr_ER780oPFV5Ub0y-35" value="" style="edgeStyle=segmentEdgeStyle;endArrow=classic;html=1;curved=0;rounded=0;endSize=8;startSize=8;exitX=1;exitY=0.5;exitDx=0;exitDy=0;entryX=0.5;entryY=0;entryDx=0;entryDy=0;" edge="1" parent="1" source="6rWLr_ER780oPFV5Ub0y-20" target="6rWLr_ER780oPFV5Ub0y-32">
          <mxGeometry width="50" height="50" relative="1" as="geometry">
            <mxPoint x="370" y="570" as="sourcePoint" />
            <mxPoint x="420" y="520" as="targetPoint" />
          </mxGeometry>
        </mxCell>
        <mxCell id="6rWLr_ER780oPFV5Ub0y-36" value="" style="edgeStyle=segmentEdgeStyle;endArrow=classic;html=1;curved=0;rounded=0;endSize=8;startSize=8;exitX=1;exitY=0.5;exitDx=0;exitDy=0;" edge="1" parent="1" source="6rWLr_ER780oPFV5Ub0y-6">
          <mxGeometry width="50" height="50" relative="1" as="geometry">
            <mxPoint x="590" y="370" as="sourcePoint" />
            <mxPoint x="720" y="940" as="targetPoint" />
          </mxGeometry>
        </mxCell>
        <mxCell id="6rWLr_ER780oPFV5Ub0y-37" value="" style="edgeStyle=segmentEdgeStyle;endArrow=classic;html=1;curved=0;rounded=0;endSize=8;startSize=8;exitX=1.058;exitY=0.467;exitDx=0;exitDy=0;exitPerimeter=0;" edge="1" parent="1" source="6rWLr_ER780oPFV5Ub0y-2">
          <mxGeometry width="50" height="50" relative="1" as="geometry">
            <mxPoint x="590" y="370" as="sourcePoint" />
            <mxPoint x="720" y="940" as="targetPoint" />
          </mxGeometry>
        </mxCell>
      </root>
    </mxGraphModel>
  </diagram>
</mxfile>
